o glass_box
usemtl Mat_1
v 0.14499999582767487 0.20000000298023224 -0.14499999582767487
v 0.15000000596046448 0.20000000298023224 -0.15000000596046448
v -0.14499999582767487 0.20000000298023224 -0.14499999582767487
v -0.15000000596046448 0.20000000298023224 -0.15000000596046448
v -0.14499999582767487 0.20000000298023224 0.14499999582767487
v -0.15000000596046448 0.20000000298023224 0.15000000596046448
v 0.14499999582767487 0.20000000298023224 0.14499999582767487
v 0.15000000596046448 0.20000000298023224 0.15000000596046448
v 0.15000000596046448 9.184851394388759e-18 -0.15000000596046448
v 0.15000000596046448 -9.184851394388759e-18 0.15000000596046448
v -0.15000000596046448 9.184851394388759e-18 -0.15000000596046448
v -0.15000000596046448 -9.184851394388759e-18 0.15000000596046448
v 0.14499999582767487 0.004999999888241291 0.14499999582767487
v 0.14499999582767487 0.004999999888241291 -0.14499999582767487
v -0.14499999582767487 0.004999999888241291 -0.14499999582767487
v -0.14499999582767487 0.004999999888241291 0.14499999582767487
vn 0 1 6.123234262925839e-17
vn -1 0 0
vn -1 0 0
vn 0 -6.123234262925839e-17 1
vn 0 1 6.123234262925839e-17
vn 1 0 0
vn 0 6.123234262925839e-17 -1
vn 0 6.123234262925839e-17 -1
vn 0 1 6.123234262925839e-17
vn 0 -6.123234262925839e-17 1
vn 0 -6.123234262925839e-17 1
vn 1 0 0
vn 0 1 6.123234262925839e-17
vn 0 6.123234262925839e-17 -1
vn -1 0 0
vn -1 0 0
vn 0 1 6.123234262925839e-17
vn 1 0 0
vn 1 0 0
vn 0 6.123234262925839e-17 -1
vn 0 1 6.123234262925839e-17
vn -1 0 0
vn 0 -6.123234262925839e-17 1
vn 0 -6.123234262925839e-17 1
vn 0 1 6.123234262925839e-17
vn -1 0 0
vn 0 6.123234262925839e-17 -1
vn 0 6.123234262925839e-17 -1
vn 0 1 6.123234262925839e-17
vn 1 0 0
vn 1 0 0
vn 0 -6.123234262925839e-17 1
vn 1 0 0
vn 0 6.123234262925839e-17 -1
vn 0 -1 -6.123234262925839e-17
vn 1 0 0
vn 0 -6.123234262925839e-17 1
vn 0 -6.123234262925839e-17 1
vn 0 -1 -6.123234262925839e-17
vn 0 -1 -6.123234262925839e-17
vn 0 6.123234262925839e-17 -1
vn -1 0 0
vn 0 -1 -6.123234262925839e-17
vn 0 -1 -6.123234262925839e-17
vn -1 0 0
vn 0 -6.123234262925839e-17 1
vn 0 -1 -6.123234262925839e-17
vn -1 0 0
vn 0 6.123234262925839e-17 -1
vn 0 1 6.123234262925839e-17
vn -1 0 0
vn 0 -6.123234262925839e-17 1
vn 0 -6.123234262925839e-17 1
vn 0 1 6.123234262925839e-17
vn 0 1 6.123234262925839e-17
vn 0 -6.123234262925839e-17 1
vn 1 0 0
vn 1 0 0
vn 0 1 6.123234262925839e-17
vn 1 0 0
vn 0 6.123234262925839e-17 -1
vn 0 6.123234262925839e-17 -1
vn 0 1 6.123234262925839e-17
vn 0 1 6.123234262925839e-17
f 1//1 2//5 3//9
f 3//9 2//5 4//13
f 3//9 4//13 5//17
f 5//17 4//13 6//21
f 5//17 6//21 7//25
f 7//25 6//21 8//29
f 7//25 8//29 1//1
f 1//1 8//29 2//5
f 2//6 8//30 9//33
f 9//33 8//31 10//36
f 4//14 2//7 11//41
f 11//41 2//8 9//34
f 6//22 4//15 12//45
f 12//45 4//16 11//42
f 8//32 6//23 10//37
f 10//38 6//24 12//46
f 12//47 11//43 10//39
f 10//40 11//44 9//35
f 7//26 1//2 13//48
f 13//48 1//3 14//51
f 1//4 3//10 14//52
f 14//53 3//11 15//56
f 3//12 5//18 15//57
f 15//58 5//19 16//60
f 5//20 7//27 16//61
f 16//62 7//28 13//49
f 15//59 16//63 14//54
f 14//55 16//64 13//50
